<?xml version="1.0" encoding="UTF-8" standalone="no"?>
<!-- Created with Inkscape (http://www.inkscape.org/) -->

<svg
   xmlns:dc="http://purl.org/dc/elements/1.1/"
   xmlns:cc="http://creativecommons.org/ns#"
   xmlns:rdf="http://www.w3.org/1999/02/22-rdf-syntax-ns#"
   xmlns:svg="http://www.w3.org/2000/svg"
   xmlns="http://www.w3.org/2000/svg"
   xmlns:sodipodi="http://sodipodi.sourceforge.net/DTD/sodipodi-0.dtd"
   xmlns:inkscape="http://www.inkscape.org/namespaces/inkscape"
   width="86.698654mm"
   height="86.698654mm"
   viewBox="0 0 86.698654 86.698654"
   version="1.1"
   id="svg933"
   inkscape:version="0.92.4 (unknown)"
   sodipodi:docname="logo.svg">
  <defs
     id="defs927" />
  <sodipodi:namedview
     id="base"
     pagecolor="#ffffff"
     bordercolor="#666666"
     borderopacity="1.0"
     inkscape:pageopacity="0.0"
     inkscape:pageshadow="2"
     inkscape:zoom="1"
     inkscape:cx="-258.5886"
     inkscape:cy="419.12568"
     inkscape:document-units="mm"
     inkscape:current-layer="layer1"
     showgrid="false"
     inkscape:window-width="2560"
     inkscape:window-height="1404"
     inkscape:window-x="0"
     inkscape:window-y="0"
     inkscape:window-maximized="1" />
  <metadata
     id="metadata930">
    <rdf:RDF>
      <cc:Work
         rdf:about="">
        <dc:format>image/svg+xml</dc:format>
        <dc:type
           rdf:resource="http://purl.org/dc/dcmitype/StillImage" />
        <dc:title></dc:title>
      </cc:Work>
    </rdf:RDF>
  </metadata>
  <g
     inkscape:label="Layer 1"
     inkscape:groupmode="layer"
     id="layer1"
     transform="translate(-38.558116,-173.02835)">
    <g
       id="g1524"
       transform="translate(-31.485417,79.639584)">
      <path
         style="fill:#fefefe;stroke-width:0.08466666"
         d="M 70.043533,136.73809 V 93.388763 h 43.349327 43.34933 v 43.349327 43.34933 H 113.39286 70.043533 Z"
         id="path1540"
         inkscape:connector-curvature="0" />
      <path
         style="fill:#d3efec;stroke-width:0.08466666"
         d="m 137.22653,152.71102 c -0.58747,-0.15328 -1.09319,-0.42952 -1.53955,-0.84097 -0.34707,-0.31992 -0.70412,-0.86251 -0.70412,-1.07003 0,-0.1058 1.52766,-1.02326 1.70384,-1.02326 0.0716,0 0.25223,0.17003 0.40147,0.37785 0.40926,0.56988 1.13497,0.69395 1.59886,0.27336 l 0.1905,-0.17273 v -3.69364 c 0,-2.75994 0.0257,-3.71932 0.1016,-3.79524 0.14011,-0.14011 2.02735,-0.14011 2.16747,0 0.16628,0.16628 0.1394,7.05106 -0.0303,7.77125 -0.32801,1.39172 -1.29164,2.15863 -2.82315,2.24682 -0.38042,0.0219 -0.81622,-0.008 -1.06658,-0.0734 z m 7.62579,0.0151 c -0.56487,-0.10787 -1.54652,-0.57167 -1.93863,-0.91595 -0.39865,-0.35002 -0.81883,-0.95104 -0.81883,-1.17125 0,-0.12012 0.20945,-0.28479 0.76134,-0.59858 0.41873,-0.23808 0.81799,-0.43287 0.88725,-0.43287 0.0693,0 0.32674,0.20613 0.57217,0.45807 0.51617,0.52986 0.94499,0.68821 1.66412,0.61453 0.59704,-0.0612 0.94112,-0.36385 0.94112,-0.82785 0,-0.26644 -0.0557,-0.36392 -0.3539,-0.61916 -0.19465,-0.16661 -0.38565,-0.30293 -0.42444,-0.30293 -0.0388,0 -0.54194,-0.22382 -1.11812,-0.49737 -1.21526,-0.57698 -1.72044,-0.99405 -2.11142,-1.74319 -0.24458,-0.46865 -0.26675,-0.57791 -0.26685,-1.31544 -9e-5,-0.71035 0.0266,-0.85506 0.22851,-1.23852 0.12574,-0.2388 0.3539,-0.55947 0.50703,-0.71259 0.36265,-0.36265 1.19856,-0.7496 1.86573,-0.86365 0.6826,-0.11669 1.61777,0.0761 2.272,0.46829 0.45086,0.2703 1.09392,1.00262 1.09396,1.24581 3e-5,0.12823 -1.42504,1.10066 -1.61298,1.10066 -0.0558,0 -0.26107,-0.17145 -0.45622,-0.381 -0.33309,-0.35768 -0.38187,-0.381 -0.79723,-0.381 -0.56103,0 -0.85807,0.25069 -0.85807,0.72419 0,0.43367 0.30543,0.6884 1.41303,1.17846 1.70062,0.75244 2.29211,1.2158 2.70503,2.11902 0.33431,0.73128 0.33539,1.65265 0.003,2.37067 -0.30572,0.65993 -0.64868,1.00903 -1.3312,1.35501 -0.85597,0.43391 -1.81942,0.5589 -2.82617,0.36664 z m -37.09927,-12.85415 c -1.60777,-0.22686 -2.77951,-0.98486 -3.11412,-2.01452 -0.35816,-1.10214 -0.26374,-2.04201 0.6781,-6.74965 0.96092,-4.80306 1.06816,-5.16122 1.86123,-6.21624 0.68899,-0.91655 1.93572,-1.69422 3.22426,-2.01116 0.79906,-0.19655 2.58691,-0.19692 3.31945,-6.8e-4 1.2085,0.32374 2.21308,1.13175 2.51798,2.02528 0.27844,0.81602 0.10245,2.92429 -0.42122,5.04568 l -0.0975,0.39512 -2.18228,0.0226 c -1.83011,0.019 -2.18978,0.003 -2.22878,-0.0986 -0.0256,-0.0667 0.10563,-0.89598 0.29158,-1.84293 0.45495,-2.3169 0.4649,-2.40088 0.30346,-2.56233 -0.15175,-0.15174 -0.35583,-0.16836 -0.6578,-0.0535 -0.14643,0.0557 -0.25989,0.21507 -0.37825,0.53143 -0.15942,0.42608 -1.89601,8.9288 -2.01208,9.85157 -0.0608,0.48347 0.0759,0.71347 0.42411,0.71347 0.54259,0 0.73179,-0.44536 1.19907,-2.82239 0.20796,-1.05788 0.25001,-1.1789 0.43396,-1.24884 0.22379,-0.0851 3.76038,-0.10602 4.06617,-0.0241 0.24849,0.0666 0.24511,0.23259 -0.0297,1.46044 -0.43844,1.95886 -0.83708,2.95297 -1.47344,3.67433 -0.70579,0.80008 -1.97283,1.54091 -3.07055,1.79534 -0.68314,0.15834 -1.99589,0.2225 -2.65362,0.12969 z m 10.53256,-0.0945 c -0.60506,-0.0663 -1.35939,-0.42862 -1.62598,-0.78107 -0.29764,-0.39352 -0.41583,-0.93347 -0.35758,-1.63366 0.0633,-0.76098 0.43637,-2.54039 0.65529,-3.12549 0.34912,-0.93312 1.12468,-1.50191 2.99719,-2.19813 1.45106,-0.53953 2.27894,-0.89967 2.46788,-1.07357 0.21126,-0.19444 0.44431,-1.03845 0.51345,-1.85944 0.0434,-0.51577 0.0321,-0.57052 -0.13668,-0.66086 -0.24938,-0.13346 -0.49316,-0.0408 -0.64005,0.24323 -0.067,0.12962 -0.22547,0.74604 -0.35211,1.36983 -0.12663,0.62379 -0.26653,1.18178 -0.3109,1.23999 -0.0604,0.0793 -0.56996,0.10583 -2.02987,0.10583 h -1.94921 l 0.0503,-0.52916 c 0.0649,-0.6834 0.41803,-1.91049 0.74174,-2.57765 0.58929,-1.21452 1.96904,-2.14244 3.63515,-2.44473 1.29917,-0.23572 2.9796,-0.0861 3.85744,0.34333 0.85482,0.41823 1.47656,1.35641 1.47656,2.22808 0,0.63673 -0.39286,2.92824 -1.17932,6.87884 -0.45387,2.27997 -0.85355,4.1738 -0.88816,4.20851 -0.0755,0.0757 -3.64115,0.13603 -3.91894,0.0663 -0.15602,-0.0392 -0.19425,-0.10676 -0.19425,-0.34347 0,-0.1621 -0.0213,-0.29472 -0.0473,-0.29472 -0.026,0 -0.18794,0.11258 -0.35983,0.25017 -0.61409,0.49157 -1.4401,0.69348 -2.40479,0.58783 z m 3.02877,-2.8237 c 0.12866,-0.19635 0.83867,-3.42167 0.76865,-3.49169 -0.0181,-0.0181 -0.24525,0.16117 -0.50479,0.39837 -0.5596,0.51145 -0.76162,0.97475 -0.96484,2.21274 -0.11078,0.6749 -0.11575,0.85057 -0.0271,0.95742 0.17135,0.20646 0.56999,0.16439 0.72805,-0.0768 z m 9.60448,2.83022 c -0.7743,-0.0752 -1.26763,-0.2049 -1.79462,-0.47195 -0.93259,-0.47258 -1.3409,-1.06481 -1.4044,-2.03701 -0.0396,-0.60592 0.17249,-2.20663 0.33192,-2.5054 0.0715,-0.13406 0.25229,-0.14816 1.89907,-0.14816 1.52552,0 1.82776,0.0202 1.86791,0.12481 0.0263,0.0686 -0.0158,0.47857 -0.0936,0.91094 -0.0778,0.43238 -0.12917,0.93818 -0.11405,1.12402 0.0262,0.32256 0.0417,0.33907 0.34017,0.36388 0.54962,0.0457 0.8431,-0.48022 0.86316,-1.5468 l 0.009,-0.50481 -0.51857,-0.38419 c -0.28522,-0.2113 -0.9097,-0.63184 -1.38773,-0.93452 -1.20479,-0.76284 -1.81281,-1.37324 -1.99617,-2.00399 -0.27116,-0.93275 0.0308,-2.86101 0.6166,-3.93729 0.47705,-0.8765 1.35436,-1.50221 2.61151,-1.86255 0.9015,-0.2584 2.85045,-0.27997 3.63408,-0.0402 0.77916,0.23839 1.26233,0.51815 1.64429,0.95208 0.49088,0.55767 0.63143,1.0722 0.51773,1.89529 -0.10376,0.75116 -0.29317,1.59333 -0.37725,1.67742 -0.1033,0.1033 -3.5821,0.0705 -3.68736,-0.0348 -0.0693,-0.0693 -0.0592,-0.27933 0.0381,-0.79252 0.18954,-0.99917 0.17834,-1.17272 -0.0798,-1.23752 -0.49324,-0.1238 -0.87938,0.44029 -0.91195,1.3322 -0.0187,0.51255 -0.0176,0.5152 0.37211,0.86482 0.21498,0.19288 0.85339,0.61486 1.41869,0.93773 1.20248,0.68679 1.86781,1.24733 2.13456,1.79836 0.39086,0.80741 0.13802,2.76484 -0.5367,4.15489 -0.81347,1.67592 -2.86286,2.55127 -5.3971,2.30524 z m -33.400995,-0.28066 c -0.232833,-0.11245 -0.554633,-0.34248 -0.715109,-0.51116 -0.160477,-0.16869 -0.316615,-0.3067 -0.346974,-0.3067 -0.03036,0 -0.124967,0.15471 -0.210237,0.34381 -0.08527,0.18909 -0.221902,0.37959 -0.303626,0.42333 -0.194404,0.10404 -3.550645,0.101 -3.715721,-0.003 -0.109498,-0.0692 0.09305,-1.18122 1.469775,-8.06913 0.878225,-4.39386 1.632593,-8.05285 1.676373,-8.13108 0.07093,-0.12675 0.288843,-0.14209 2.001559,-0.14094 1.057078,6.8e-4 1.975221,0.035 2.040318,0.0762 0.09905,0.0627 0.06509,0.34504 -0.208202,1.73078 -0.179609,0.91071 -0.302027,1.68037 -0.272043,1.71035 0.02999,0.03 0.276076,-0.0816 0.546869,-0.24788 1.525713,-0.93711 3.700673,-0.62844 4.227783,0.6 0.22851,0.53255 0.13586,1.23977 -0.72411,5.52722 -0.84811,4.22827 -1.09032,5.1726 -1.47631,5.75588 -0.28382,0.42887 -0.84571,0.87751 -1.45626,1.16274 -0.417535,0.19506 -0.637534,0.23875 -1.306419,0.25946 -0.707356,0.0219 -0.855373,2.5e-4 -1.227666,-0.17956 z m 0.150874,-2.40613 c 0.07413,-0.0819 0.21145,-0.43434 0.305152,-0.78317 0.290044,-1.07977 1.448974,-7.06369 1.448974,-7.48152 0,-0.33778 -0.03031,-0.40915 -0.208199,-0.4902 -0.305285,-0.1391 -0.591267,0.0811 -0.756061,0.58212 -0.136624,0.41538 -1.308034,6.15644 -1.492452,7.31447 -0.07752,0.48679 -0.0788,0.68808 -0.0053,0.8255 0.120789,0.2257 0.516674,0.24404 0.707845,0.0328 z m 40.340391,2.41775 c -0.13954,-0.10302 -0.0488,-0.60994 1.46643,-8.19548 1.18792,-5.94685 1.65147,-8.11366 1.75242,-8.1915 0.10034,-0.0774 0.64327,-0.10584 2.01914,-0.10584 1.03504,0 1.94216,0.0231 2.01582,0.0514 0.18699,0.0717 0.1731,0.23383 -0.16241,1.89594 -0.16298,0.8074 -0.29633,1.47691 -0.29633,1.48779 0,0.0109 0.25001,-0.10599 0.55558,-0.25974 1.40938,-0.7091 3.00029,-0.57057 3.83394,0.33383 0.45414,0.49269 0.55509,0.84677 0.48559,1.7033 -0.0313,0.38527 -0.52681,3.05343 -1.10122,5.92925 -0.8293,4.15188 -1.07596,5.25184 -1.19766,5.34083 -0.21845,0.15974 -3.83078,0.16161 -4.04893,0.002 -0.14182,-0.1037 -0.0921,-0.40194 0.87282,-5.23376 0.56277,-2.81809 1.02321,-5.28064 1.02321,-5.47233 0,-0.27696 -0.0356,-0.35985 -0.17348,-0.4036 -0.27054,-0.0859 -0.55836,0.16312 -0.70736,0.61195 -0.074,0.22295 -0.58652,2.66375 -1.13888,5.42399 -0.55236,2.76024 -1.03184,5.04624 -1.06551,5.08 -0.0337,0.0338 -0.94394,0.0727 -2.02283,0.0865 -1.50653,0.0193 -1.99611,-3.4e-4 -2.11034,-0.0847 z m -61.011369,-0.0959 c -0.117989,-0.14216 3.05876,-16.13572 3.226086,-16.24194 0.05868,-0.0373 1.006895,-0.0683 2.107152,-0.069 1.498741,-9.8e-4 2.022334,0.0252 2.087657,0.10453 0.06162,0.0748 -0.282978,1.95536 -1.174966,6.41212 -0.694187,3.46846 -1.262158,6.35454 -1.262158,6.4135 0,0.0814 0.285884,0.10722 1.18799,0.10722 0.948491,0 1.197298,0.0242 1.234156,0.1203 0.06893,0.17964 -0.542918,3.11885 -0.665445,3.19665 -0.05814,0.0369 -1.577411,0.0677 -3.376167,0.0684 -2.625922,0.001 -3.28896,-0.021 -3.364305,-0.11178 z m 8.624509,0.0302 c -0.109477,-0.0692 0.05237,-0.97994 1.177099,-6.62387 0.717215,-3.59899 1.340974,-6.59125 1.386129,-6.64946 0.06168,-0.0795 0.594127,-0.10584 2.141071,-0.10584 1.132433,0 2.076576,0.0286 2.098095,0.0635 0.05793,0.094 -2.570527,13.16884 -2.672257,13.29267 -0.106213,0.12929 -3.928326,0.15058 -4.130137,0.023 z m 2.804181,-14.17115 c -0.0713,-0.0859 -0.05035,-0.33523 0.0836,-0.99483 0.09831,-0.4841 0.214003,-0.94686 0.257094,-1.02835 0.07127,-0.13478 0.260764,-0.14817 2.097001,-0.14817 1.520752,0 2.040503,0.0263 2.107238,0.10674 0.108736,0.13102 -0.276165,2.01308 -0.431949,2.1121 -0.05586,0.0355 -0.982728,0.0652 -2.059701,0.0659 -1.544726,10e-4 -1.978221,-0.0229 -2.053281,-0.11336 z"
         id="path1538"
         inkscape:connector-curvature="0" />
      <path
         style="fill:#cbcbcb;stroke-width:0.08466666"
         d="m 137.04931,152.54203 c -0.23716,-0.0607 -0.56101,-0.19113 -0.71966,-0.28984 -0.39768,-0.24742 -1.0651,-0.94565 -1.16926,-1.22323 -0.0759,-0.20218 -0.0588,-0.2483 0.14335,-0.38779 0.44115,-0.30437 1.26837,-0.77974 1.35687,-0.77974 0.0491,0 0.19652,0.14962 0.3276,0.33248 0.13107,0.18287 0.33945,0.39242 0.46305,0.46567 0.28824,0.17082 0.91072,0.17138 1.15391,0.001 0.43695,-0.30605 0.44169,-0.35136 0.44169,-4.22399 v -3.60254 h 1.016 1.016 v 3.64512 c 0,4.51501 -0.0122,4.59791 -0.79426,5.37272 -0.32625,0.32325 -0.64347,0.55287 -0.85674,0.62016 -0.50692,0.15994 -1.8703,0.20003 -2.37855,0.0699 z m 7.6458,0.0168 c -0.6386,-0.12239 -1.28843,-0.45012 -1.75162,-0.88338 -0.48356,-0.45232 -0.80091,-0.91822 -0.73768,-1.083 0.0429,-0.11178 1.36759,-0.90031 1.51249,-0.90031 0.0425,0 0.27912,0.20673 0.52579,0.45939 0.35384,0.36242 0.55031,0.48898 0.93076,0.59958 0.79759,0.23187 1.52478,-0.005 1.80222,-0.58665 0.11831,-0.2481 0.12255,-0.32982 0.0288,-0.55607 -0.155,-0.3742 -0.4807,-0.59117 -1.72589,-1.14973 -0.85448,-0.38329 -1.19928,-0.58987 -1.59306,-0.95444 -0.77082,-0.71365 -0.87243,-0.96173 -0.87243,-2.13008 0,-1.1165 0.0696,-1.30997 0.68744,-1.91043 0.70544,-0.6856 1.90247,-0.94607 3.11161,-0.67706 0.44807,0.0997 0.75886,0.22832 1.00474,0.41586 0.3446,0.26283 0.91121,0.92748 0.91121,1.06887 0,0.0755 -1.42036,1.0181 -1.53406,1.0181 -0.0383,0 -0.1564,-0.11811 -0.26257,-0.26247 -0.20889,-0.28401 -0.71816,-0.5842 -0.99113,-0.5842 -0.33791,0 -0.75077,0.2723 -0.89381,0.5895 -0.13201,0.29274 -0.13123,0.33021 0.0132,0.63304 0.13767,0.28868 0.2627,0.37381 1.21245,0.82549 0.58242,0.27698 1.18922,0.56766 1.34845,0.64596 0.51002,0.25077 1.33656,1.08769 1.50421,1.52309 0.18923,0.49144 0.20941,1.76314 0.0358,2.2552 -0.1532,0.43423 -0.79186,1.11245 -1.2809,1.36026 -0.69597,0.35268 -1.98601,0.47515 -2.98602,0.28348 z m -37.2921,-12.80854 c -1.22988,-0.235 -2.19855,-0.8639 -2.60258,-1.68971 -0.48937,-1.00024 -0.39074,-2.12483 0.62887,-7.1702 0.99806,-4.93875 1.10643,-5.24702 2.24659,-6.39054 0.77078,-0.77304 1.47439,-1.18545 2.54579,-1.49218 0.89786,-0.25704 2.76894,-0.27812 3.54857,-0.04 1.55215,0.47411 2.41152,1.36702 2.54974,2.64925 0.0309,0.28624 0.0121,0.89584 -0.0416,1.35466 -0.11472,0.97989 -0.5445,3.22031 -0.63518,3.31123 -0.0346,0.0346 -0.94555,0.0743 -2.02443,0.0881 -1.53853,0.0197 -1.99501,6.8e-4 -2.11647,-0.0884 -0.14859,-0.10898 -0.14072,-0.18512 0.19444,-1.88042 0.20996,-1.062 0.33929,-1.93802 0.3242,-2.19594 -0.0221,-0.37795 -0.0519,-0.43847 -0.25002,-0.50778 -0.362,-0.12667 -0.74168,0.0802 -0.93047,0.507 -0.19991,0.45192 -2.01766,9.48141 -2.03175,10.09247 -0.0121,0.52542 0.0741,0.64347 0.46988,0.64347 0.59147,0 0.76991,-0.35972 1.1896,-2.39813 0.16707,-0.81139 0.34567,-1.52577 0.3969,-1.5875 0.0726,-0.0875 0.53972,-0.11223 2.11743,-0.11223 1.80357,0 2.03014,0.0152 2.07794,0.13978 0.12752,0.33232 -0.52679,2.91797 -0.98759,3.90266 -0.4589,0.98065 -1.23255,1.73054 -2.38788,2.31455 -1.12387,0.5681 -2.95549,0.80329 -4.28201,0.54982 z m 10.75402,-0.0491 c -1.24798,-0.26111 -1.80409,-0.90722 -1.79913,-2.09033 0.002,-0.53732 0.44302,-2.73636 0.66839,-3.33473 0.36669,-0.97354 1.02208,-1.43958 3.13991,-2.23271 0.58208,-0.21799 1.3497,-0.53138 1.70582,-0.69641 0.74766,-0.34647 0.84073,-0.48687 1.04739,-1.58011 0.22425,-1.18622 0.14957,-1.4479 -0.39818,-1.39533 -0.37557,0.0361 -0.50152,0.31179 -0.80507,1.76261 l -0.23915,1.143 -1.89835,0.0228 c -1.04409,0.0126 -1.92696,-0.006 -1.96194,-0.0423 -0.0792,-0.0812 0.19423,-1.43046 0.43608,-2.15168 0.28042,-0.83622 0.57711,-1.31157 1.15744,-1.85444 1.01425,-0.94879 2.41166,-1.43676 4.10622,-1.43391 2.05295,0.003 3.34866,0.65268 3.75714,1.8825 0.25983,0.78226 0.12831,1.72115 -1.11778,7.9797 -0.39868,2.00237 -0.76479,3.68899 -0.81357,3.74806 -0.0679,0.0822 -0.53725,0.10207 -2.00321,0.0847 l -1.91451,-0.0227 -0.0259,-0.40517 -0.0259,-0.40517 -0.38495,0.33885 c -0.64827,0.57063 -1.77236,0.8624 -2.63069,0.68283 z m 3.2046,-2.70901 c 0.14934,-0.20547 0.88457,-3.53621 0.79939,-3.62139 -0.0887,-0.0887 -0.91092,0.61418 -1.10416,0.94392 -0.41855,0.7142 -0.73977,2.67367 -0.46733,2.85072 0.21699,0.14102 0.60735,0.0534 0.7721,-0.17325 z m 9.55723,2.7386 c -0.62791,-0.0834 -1.37304,-0.28972 -1.76668,-0.4892 -0.99585,-0.50463 -1.36382,-1.10271 -1.36516,-2.21888 -8.8e-4,-0.73108 0.20855,-2.03358 0.35546,-2.21068 0.065,-0.0783 0.53664,-0.10584 1.81574,-0.10584 1.45505,0 1.73563,0.02 1.77651,0.12654 0.0267,0.0696 -0.0127,0.46012 -0.0875,0.86784 -0.16203,0.88282 -0.17203,1.30611 -0.0341,1.44402 0.14114,0.14115 0.58638,0.12706 0.80411,-0.0254 0.21517,-0.15072 0.42359,-0.7413 0.5015,-1.42106 0.0722,-0.63016 0.04,-0.6648 -1.66121,-1.78872 -1.41769,-0.93658 -2.13282,-1.60984 -2.28253,-2.14888 -0.2672,-0.96209 0.0867,-2.97276 0.71061,-4.0374 0.65799,-1.12278 2.08405,-1.79626 3.98492,-1.88194 2.09111,-0.0943 3.44953,0.44012 4.08263,1.60602 0.10836,0.19955 0.14571,0.4466 0.13741,0.90902 -0.0122,0.68276 -0.22815,1.82151 -0.38003,2.00452 -0.0715,0.0862 -0.47757,0.11185 -1.75488,0.11085 -0.91399,-6.7e-4 -1.71319,-0.0339 -1.776,-0.0737 -0.0951,-0.0602 -0.0894,-0.21429 0.0341,-0.91987 0.0816,-0.46612 0.12465,-0.90922 0.0957,-0.98466 -0.0364,-0.0948 -0.15716,-0.13717 -0.39066,-0.13717 -0.57335,0 -0.85119,0.47364 -0.85215,1.45266 -4.2e-4,0.46672 0.0101,0.4884 0.41259,0.84666 0.22718,0.20223 0.78817,0.57723 1.24664,0.83335 2.4789,1.3848 2.82739,2.12042 2.19168,4.62645 -0.49246,1.94133 -1.40141,2.91997 -3.1663,3.40904 -0.62178,0.17231 -2.04755,0.28412 -2.63242,0.20644 z m -33.169573,-0.25024 c -0.198685,-0.073 -0.568044,-0.32174 -0.820798,-0.55275 l -0.459553,-0.42 -0.125566,0.1947 c -0.06906,0.10708 -0.172544,0.29947 -0.22996,0.42753 l -0.104392,0.23283 h -1.849077 c -1.422779,0 -1.849092,-0.0244 -1.849145,-0.10583 -1.7e-4,-0.2327 3.151379,-15.85845 3.211037,-15.92079 0.03524,-0.0368 0.917867,-0.0671 1.961388,-0.0674 1.48605,-3.4e-4 1.902032,0.0234 1.919093,0.10929 0.01198,0.0603 -0.126782,0.85264 -0.30836,1.76069 -0.181578,0.90805 -0.30225,1.6811 -0.268159,1.71789 0.03409,0.0368 0.258037,-0.065 0.497662,-0.2263 0.685173,-0.46109 1.309783,-0.66258 2.089073,-0.67389 1.27623,-0.0185 2.04075,0.40046 2.28902,1.25448 0.1179,0.40557 0.1182,0.53157 0.003,1.24274 -0.25346,1.56367 -1.65159,8.33734 -1.82215,8.82798 -0.36655,1.05443 -0.85922,1.60706 -1.83037,2.05312 -0.627269,0.28811 -1.725915,0.35761 -2.302665,0.14567 z m 0.05036,-2.34816 c 0.09313,-0.10039 0.227912,-0.39208 0.299521,-0.6482 0.220726,-0.78944 1.493025,-7.32025 1.493025,-7.66381 0,-0.83622 -0.865408,-0.84363 -1.181238,-0.0101 -0.103834,0.27403 -1.299736,6.13317 -1.484991,7.27548 -0.134278,0.82799 -0.08028,1.12083 0.227673,1.23475 0.247241,0.0915 0.438262,0.0358 0.64601,-0.18811 z m 40.242763,2.28673 c -0.11797,-0.14216 3.05876,-16.13572 3.22609,-16.24194 0.0587,-0.0373 0.97466,-0.0683 2.03551,-0.069 1.67245,-0.001 1.93558,0.0163 1.97965,0.13115 0.028,0.0729 -0.0902,0.83851 -0.26262,1.70148 -0.1724,0.86297 -0.29557,1.58692 -0.27371,1.60877 0.0219,0.0219 0.2439,-0.0755 0.49342,-0.2163 1.37411,-0.7755 3.12889,-0.65332 3.94359,0.27457 0.37709,0.42948 0.47714,0.81471 0.42039,1.6188 -0.0505,0.71539 -2.04429,10.89037 -2.1858,11.15478 -0.0738,0.13787 -0.24543,0.15067 -2.00389,0.14949 -1.05775,-6.8e-4 -1.97362,-0.0333 -2.03527,-0.0724 -0.0898,-0.0569 0.082,-1.04695 0.86304,-4.97287 1.07688,-5.41331 1.11152,-5.61137 1.03488,-5.91672 -0.0436,-0.17388 -0.10485,-0.21276 -0.33499,-0.21276 -0.33186,0 -0.50985,0.16999 -0.6785,0.648 -0.0666,0.18879 -0.569,2.5872 -1.11644,5.3298 -0.54743,2.74259 -1.032,5.03416 -1.07682,5.09237 -0.12183,0.15823 -3.89683,0.15145 -4.02853,-0.007 z M 77.107175,139.131 c 0.02761,-0.1286 0.74918,-3.73039 1.603491,-8.00398 0.854311,-4.27358 1.570242,-7.7871 1.590957,-7.80782 0.04642,-0.0464 4.054449,-0.0674 4.100389,-0.0214 0.01817,0.0182 -0.538337,2.88776 -1.236674,6.37688 -0.698337,3.48912 -1.251574,6.39148 -1.229415,6.44969 0.02959,0.0777 0.35582,0.10583 1.228281,0.10583 h 1.18799 l -0.0034,0.23284 c -0.0018,0.12806 -0.125667,0.82338 -0.275167,1.54516 l -0.271815,1.31234 -3.372442,0.0221 -3.372442,0.0222 0.0502,-0.23381 z m 8.603816,0.0837 c 0.0023,-0.0815 0.585137,-3.04376 1.295256,-6.58283 l 1.291125,-6.43467 1.979746,-0.0228 c 1.08886,-0.0125 2.010748,0.008 2.048638,0.0461 0.05067,0.0507 -2.196188,11.63347 -2.512425,12.9518 l -0.0457,0.1905 h -2.030387 c -1.878831,0 -2.030078,-0.0111 -2.026256,-0.14817 z m 2.789869,-14.0202 c 0,-0.16316 0.369766,-1.80716 0.417962,-1.85829 0.06168,-0.0654 3.974782,-0.0982 4.039153,-0.0338 0.01789,0.0179 -0.05372,0.44793 -0.159129,0.95565 l -0.191653,0.92312 -2.053166,0.0227 c -1.129242,0.0125 -2.053167,0.008 -2.053167,-0.009 z"
         id="path1536"
         inkscape:connector-curvature="0" />
      <path
         style="fill:#a4e9d4;stroke-width:0.08466666"
         d="m 107.40301,139.75024 c -1.22988,-0.235 -2.19855,-0.8639 -2.60258,-1.68971 -0.48937,-1.00024 -0.39074,-2.12483 0.62887,-7.1702 0.99806,-4.93875 1.10643,-5.24702 2.24659,-6.39054 0.77078,-0.77304 1.47439,-1.18545 2.54579,-1.49218 0.89786,-0.25704 2.76894,-0.27812 3.54857,-0.04 1.55215,0.47411 2.41152,1.36702 2.54974,2.64925 0.0309,0.28624 0.0121,0.89584 -0.0416,1.35466 -0.11472,0.97989 -0.5445,3.22031 -0.63518,3.31123 -0.0346,0.0346 -0.94555,0.0743 -2.02443,0.0881 -1.53853,0.0197 -1.99501,6.8e-4 -2.11647,-0.0884 -0.14859,-0.10898 -0.14072,-0.18512 0.19444,-1.88042 0.20996,-1.062 0.33929,-1.93802 0.3242,-2.19594 -0.0221,-0.37795 -0.0519,-0.43847 -0.25002,-0.50778 -0.362,-0.12667 -0.74168,0.0802 -0.93047,0.507 -0.19991,0.45192 -2.01766,9.48141 -2.03175,10.09247 -0.0121,0.52542 0.0741,0.64347 0.46988,0.64347 0.59147,0 0.76991,-0.35972 1.1896,-2.39813 0.16707,-0.81139 0.34567,-1.52577 0.3969,-1.5875 0.0726,-0.0875 0.53972,-0.11223 2.11743,-0.11223 1.80357,0 2.03014,0.0152 2.07794,0.13978 0.12752,0.33232 -0.52679,2.91797 -0.98759,3.90266 -0.4589,0.98065 -1.23255,1.73054 -2.38788,2.31455 -1.12387,0.5681 -2.95549,0.80329 -4.28201,0.54982 z m 10.75402,-0.0491 c -1.24798,-0.26111 -1.80409,-0.90722 -1.79913,-2.09033 0.002,-0.53732 0.44302,-2.73636 0.66839,-3.33473 0.36669,-0.97354 1.02208,-1.43958 3.13991,-2.23271 0.58208,-0.21799 1.3497,-0.53138 1.70582,-0.69641 0.74766,-0.34647 0.84073,-0.48687 1.04739,-1.58011 0.22425,-1.18622 0.14957,-1.4479 -0.39818,-1.39533 -0.37557,0.0361 -0.50152,0.31179 -0.80507,1.76261 l -0.23915,1.143 -1.89835,0.0228 c -1.04409,0.0126 -1.92696,-0.006 -1.96194,-0.0423 -0.0792,-0.0812 0.19423,-1.43046 0.43608,-2.15168 0.28042,-0.83622 0.57711,-1.31157 1.15744,-1.85444 1.01425,-0.94879 2.41166,-1.43676 4.10622,-1.43391 2.05295,0.003 3.34866,0.65268 3.75714,1.8825 0.25983,0.78226 0.12831,1.72115 -1.11778,7.9797 -0.39868,2.00237 -0.76479,3.68899 -0.81357,3.74806 -0.0679,0.0822 -0.53725,0.10207 -2.00321,0.0847 l -1.91451,-0.0227 -0.0259,-0.40517 -0.0259,-0.40517 -0.38495,0.33885 c -0.64827,0.57063 -1.77236,0.8624 -2.63069,0.68283 z m 3.2046,-2.70901 c 0.14934,-0.20547 0.88457,-3.53621 0.79939,-3.62139 -0.0887,-0.0887 -0.91092,0.61418 -1.10416,0.94392 -0.41855,0.7142 -0.73977,2.67367 -0.46733,2.85072 0.21699,0.14102 0.60735,0.0534 0.7721,-0.17325 z m 9.55723,2.7386 c -0.62791,-0.0834 -1.37304,-0.28972 -1.76668,-0.4892 -0.99585,-0.50463 -1.36382,-1.10271 -1.36516,-2.21888 -8.8e-4,-0.73108 0.20855,-2.03358 0.35546,-2.21068 0.065,-0.0783 0.53664,-0.10584 1.81574,-0.10584 1.45505,0 1.73563,0.02 1.77651,0.12654 0.0267,0.0696 -0.0127,0.46012 -0.0875,0.86784 -0.16203,0.88282 -0.17203,1.30611 -0.0341,1.44402 0.14114,0.14115 0.58638,0.12706 0.80411,-0.0254 0.21517,-0.15072 0.42359,-0.7413 0.5015,-1.42106 0.0722,-0.63016 0.04,-0.6648 -1.66121,-1.78872 -1.41769,-0.93658 -2.13282,-1.60984 -2.28253,-2.14888 -0.2672,-0.96209 0.0867,-2.97276 0.71061,-4.0374 0.65799,-1.12278 2.08405,-1.79626 3.98492,-1.88194 2.09111,-0.0943 3.44953,0.44012 4.08263,1.60602 0.10836,0.19955 0.14571,0.4466 0.13741,0.90902 -0.0122,0.68276 -0.22815,1.82151 -0.38003,2.00452 -0.0715,0.0862 -0.47757,0.11185 -1.75488,0.11085 -0.91399,-6.7e-4 -1.71319,-0.0339 -1.776,-0.0737 -0.0951,-0.0602 -0.0894,-0.21429 0.0341,-0.91987 0.0816,-0.46612 0.12465,-0.90922 0.0957,-0.98466 -0.0364,-0.0948 -0.15716,-0.13717 -0.39066,-0.13717 -0.57335,0 -0.85119,0.47364 -0.85215,1.45266 -4.2e-4,0.46672 0.0101,0.4884 0.41259,0.84666 0.22718,0.20223 0.78817,0.57723 1.24664,0.83335 2.4789,1.3848 2.82739,2.12042 2.19168,4.62645 -0.49246,1.94133 -1.40141,2.91997 -3.1663,3.40904 -0.62178,0.17231 -2.04755,0.28412 -2.63242,0.20644 z m 7.12356,-0.31167 c -0.11798,-0.14216 3.05876,-16.13572 3.22609,-16.24194 0.0587,-0.0373 0.97466,-0.0683 2.03551,-0.069 1.67245,-0.001 1.93558,0.0163 1.97965,0.13115 0.028,0.0729 -0.0902,0.83851 -0.26262,1.70148 -0.1724,0.86297 -0.29557,1.58692 -0.27371,1.60877 0.0219,0.0219 0.2439,-0.0755 0.49342,-0.2163 1.37411,-0.7755 3.12889,-0.65332 3.94359,0.27457 0.37709,0.42948 0.47714,0.81471 0.42039,1.6188 -0.0505,0.71539 -2.04429,10.89037 -2.1858,11.15478 -0.0738,0.13787 -0.24543,0.15067 -2.00389,0.14949 -1.05775,-6.8e-4 -1.97362,-0.0333 -2.03527,-0.0724 -0.0898,-0.0569 0.082,-1.04695 0.86304,-4.97287 1.07688,-5.41331 1.11152,-5.61137 1.03488,-5.91672 -0.0436,-0.17388 -0.10485,-0.21276 -0.33499,-0.21276 -0.33186,0 -0.50985,0.16999 -0.6785,0.648 -0.0666,0.18879 -0.569,2.5872 -1.11644,5.3298 -0.54743,2.74259 -1.032,5.03416 -1.07682,5.09237 -0.12183,0.15823 -3.89683,0.15145 -4.02853,-0.007 z"
         id="path1534"
         inkscape:connector-curvature="0" />
      <path
         style="fill:#73dec5;stroke-width:0.08466666"
         d="m 107.22986,139.65697 c -1.12596,-0.2445 -1.95169,-0.80148 -2.37374,-1.60117 -0.21727,-0.41168 -0.22599,-0.47914 -0.21951,-1.69871 0.007,-1.24699 0.02,-1.33596 0.74077,-4.91066 1.03862,-5.15147 1.17808,-5.61304 1.99314,-6.59687 1.07538,-1.29806 2.72374,-1.99869 4.69438,-1.99533 1.96027,0.003 3.31114,0.62595 3.93904,1.81547 0.21131,0.40031 0.225,0.49487 0.22111,1.52739 -0.003,0.83299 -0.0618,1.40953 -0.24127,2.37067 -0.13041,0.6985 -0.28144,1.36525 -0.3356,1.48167 l -0.0985,0.21166 -2.01182,0.0227 c -1.75393,0.0198 -2.01827,0.006 -2.06223,-0.1087 -0.0277,-0.0723 0.10654,-0.92842 0.2984,-1.90253 0.48686,-2.472 0.47383,-2.62581 -0.22249,-2.62581 -0.50216,0 -0.71887,0.24977 -0.9395,1.08282 -0.30179,1.13949 -1.87585,9.20083 -1.87585,9.60693 0,0.46746 0.15637,0.65558 0.54496,0.65558 0.64482,0 0.85606,-0.43853 1.28468,-2.667 0.12539,-0.65193 0.26498,-1.23295 0.3102,-1.29116 0.10182,-0.13106 4.08541,-0.15451 4.16575,-0.0245 0.0689,0.1115 -0.4177,2.20648 -0.72077,3.10309 -0.42832,1.26714 -0.93123,1.94187 -1.95432,2.62202 -1.11712,0.74266 -2.24197,1.05659 -3.74378,1.04484 -0.47322,-0.004 -1.10009,-0.0588 -1.39306,-0.12239 z m 10.61245,-0.0909 c -1.03383,-0.3296 -1.40145,-0.83786 -1.40145,-1.9376 0,-0.80369 0.41696,-2.82536 0.72367,-3.50881 0.4103,-0.91427 0.84569,-1.19792 3.26282,-2.12567 1.74614,-0.67022 1.95525,-0.77108 2.17322,-1.04818 0.18292,-0.23254 0.45494,-1.37489 0.47409,-1.99099 0.007,-0.23451 -0.036,-0.46165 -0.10366,-0.54323 -0.15727,-0.18974 -0.62621,-0.17962 -0.80448,0.0174 -0.13365,0.14768 -0.43081,1.2125 -0.64712,2.31884 -0.0759,0.38815 -0.13253,0.49589 -0.27968,0.53199 -0.10149,0.0249 -0.94652,0.0345 -1.87786,0.0213 l -1.69333,-0.024 0.0217,-0.3512 c 0.0605,-0.97749 0.66526,-2.67032 1.16701,-3.26662 0.6336,-0.75299 1.7564,-1.39429 2.86198,-1.63465 0.52294,-0.11369 0.92775,-0.13529 1.905,-0.10167 1.48019,0.0509 2.06709,0.21774 2.68747,0.76383 0.78972,0.69514 0.93643,1.41544 0.66545,3.26711 -0.18815,1.28571 -1.7969,9.33934 -1.88272,9.42515 -0.0394,0.0394 -0.92631,0.0614 -1.97081,0.0489 l -1.89911,-0.0228 0.0281,-0.40216 c 0.0155,-0.22119 -0.006,-0.40217 -0.0469,-0.40217 -0.0413,0 -0.20112,0.13008 -0.35521,0.28906 -0.64935,0.66996 -2.04439,0.98357 -3.00827,0.67628 z m 3.34458,-2.32252 c 0.0896,-0.0479 0.21935,-0.19635 0.28835,-0.3298 0.1803,-0.34865 0.8132,-3.50351 0.72152,-3.59655 -0.076,-0.0772 -0.40884,0.14243 -0.87132,0.5749 -0.62409,0.5836 -1.16759,2.91019 -0.7722,3.30558 0.15335,0.15335 0.39953,0.17117 0.63365,0.0459 z m 9.11497,2.33338 c -1.03921,-0.21705 -1.92603,-0.74769 -2.22913,-1.33382 -0.29473,-0.56995 -0.30498,-1.67128 -0.028,-3.00788 l 0.0921,-0.4445 h 1.75788 c 0.96684,0 1.77576,0.0179 1.7976,0.0397 0.0219,0.0219 -0.0354,0.47825 -0.12728,1.01424 -0.18657,1.08874 -0.1423,1.35463 0.24156,1.45097 0.57304,0.14383 0.96572,-0.33647 1.13513,-1.38842 0.13948,-0.86608 0.11761,-0.89292 -1.68423,-2.06681 -1.79367,-1.16856 -2.20475,-1.62961 -2.32726,-2.6101 -0.10775,-0.86241 0.34278,-2.75614 0.84431,-3.54891 0.72871,-1.15189 2.22735,-1.78068 4.24399,-1.78068 1.13919,0 1.71282,0.0921 2.36583,0.38002 0.86753,0.38244 1.47713,1.17918 1.47713,1.93058 0,0.49254 -0.24988,1.93786 -0.35803,2.0709 -0.0637,0.0784 -0.53343,0.10583 -1.81134,0.10583 -1.58674,0 -1.72529,-0.0119 -1.72518,-0.14816 6e-5,-0.0815 0.0572,-0.47202 0.12688,-0.86784 0.15449,-0.87704 0.15493,-0.80664 -0.006,-0.96761 -0.19879,-0.19879 -0.65187,-0.16844 -0.85762,0.0574 -0.28663,0.3147 -0.37213,0.55089 -0.42419,1.17193 l -0.0496,0.5918 0.41782,0.39872 c 0.2298,0.21929 0.88051,0.66133 1.44602,0.98231 1.17042,0.66432 1.80875,1.18306 2.08008,1.69038 0.26332,0.49234 0.25871,1.74741 -0.0102,2.76369 -0.52325,1.97789 -1.44524,2.97047 -3.18896,3.43313 -0.71126,0.18871 -2.47435,0.2345 -3.19934,0.0831 z m 7.729,-0.23666 c 0,-0.0959 3.06341,-15.49415 3.17483,-15.95837 l 0.0457,-0.1905 h 1.98306 c 1.09068,0 2.00093,0.0289 2.02278,0.0643 0.0316,0.0511 -0.27227,1.6961 -0.58637,3.17423 -0.0618,0.29068 0.0369,0.29582 0.46699,0.0243 0.65161,-0.41134 1.32067,-0.57378 2.21712,-0.53828 0.72645,0.0288 0.85913,0.0596 1.21943,0.28371 0.22235,0.13828 0.52229,0.39814 0.66652,0.57747 0.26149,0.3251 0.26221,0.32889 0.25073,1.31233 -0.0105,0.90258 -0.10035,1.42463 -1.05833,6.15096 l -1.04682,5.16466 -2.01083,0.0227 c -1.88535,0.0213 -2.01084,0.0132 -2.01084,-0.12908 0,-0.0835 0.43437,-2.32255 0.96527,-4.9757 1.11873,-5.59083 1.13833,-5.71389 0.94168,-5.91053 -0.18529,-0.1853 -0.57549,-0.17997 -0.7476,0.0102 -0.28306,0.31278 -0.43004,0.91829 -1.41475,5.82827 -0.55547,2.76968 -1.03229,5.07194 -1.0596,5.11612 -0.029,0.047 -0.87375,0.0804 -2.03433,0.0804 -1.54411,0 -1.98467,-0.0238 -1.98467,-0.10713 z"
         id="path1532"
         inkscape:connector-curvature="0" />
      <path
         style="fill:#59d8ae;stroke-width:0.08466666"
         d="m 108.01653,139.73056 c -2.11925,-0.25163 -3.22281,-1.12729 -3.38849,-2.68872 -0.0857,-0.8073 0.0876,-2.04262 0.77301,-5.51075 0.99914,-5.05581 1.22525,-5.77992 2.1266,-6.8103 1.0877,-1.24341 3.09368,-1.97449 5.02822,-1.83253 2.16277,0.1587 3.46445,1.12438 3.67197,2.7241 0.0839,0.64674 -0.22364,3.01431 -0.5571,4.2889 l -0.0831,0.3175 h -2.02374 c -1.11306,0 -2.04106,-0.0286 -2.06223,-0.0635 -0.0212,-0.0349 0.10935,-0.80645 0.29005,-1.7145 0.40213,-2.02076 0.44382,-2.58551 0.20411,-2.76486 -0.22651,-0.16949 -0.76409,-0.0965 -1.01329,0.13765 -0.28754,0.27014 -0.46285,0.98579 -1.39016,5.67521 -1.05054,5.31255 -1.02068,5.09256 -0.73044,5.3828 0.189,0.18901 0.27552,0.21735 0.53661,0.17579 0.59813,-0.0952 0.7394,-0.40908 1.20614,-2.67992 0.14835,-0.72179 0.3125,-1.34072 0.36477,-1.37541 0.0523,-0.0347 0.97134,-0.0538 2.04237,-0.0423 l 1.94734,0.0207 -0.0188,0.38512 c -0.0275,0.5619 -0.54854,2.5552 -0.87319,3.34021 -0.23589,0.57039 -0.38143,0.7776 -0.92172,1.31233 -0.35289,0.34925 -0.85744,0.76152 -1.12125,0.91615 -1.0956,0.64218 -2.68941,0.96285 -4.00769,0.80632 z m 10.26016,-0.12391 c -0.27088,-0.0384 -0.68891,-0.17571 -0.92895,-0.30505 -1.01058,-0.54454 -1.10968,-1.29671 -0.52004,-3.94714 0.28158,-1.2657 0.6038,-1.85094 1.24852,-2.26764 0.27263,-0.17621 0.99728,-0.51506 1.61033,-0.75299 2.91955,-1.13311 2.90261,-1.12383 3.1206,-1.71092 0.19167,-0.51623 0.36682,-1.73958 0.29183,-2.03835 -0.0806,-0.32125 -0.3908,-0.45424 -0.73087,-0.31337 -0.14358,0.0595 -0.30044,0.18172 -0.34857,0.27166 -0.0481,0.09 -0.20987,0.7229 -0.3594,1.40656 l -0.27188,1.24302 -1.8387,0.0228 -1.8387,0.0228 0.001,-0.23448 c 0.002,-0.42981 0.41746,-1.9148 0.70592,-2.52223 0.36017,-0.75841 0.68056,-1.12216 1.42336,-1.61597 1.0789,-0.71725 2.34074,-1.0219 3.88105,-0.93702 1.13956,0.0628 1.79087,0.23663 2.36295,0.63065 0.56011,0.38579 0.92991,0.9961 0.99642,1.64447 0.0253,0.24692 -0.0184,0.90615 -0.0972,1.46495 -0.20011,1.41934 -1.8179,9.54384 -1.92649,9.67478 -0.0681,0.0821 -0.52089,0.10208 -1.9189,0.0847 l -1.82978,-0.0228 0.0237,-0.4445 c 0.013,-0.24447 8.4e-4,-0.4445 -0.0271,-0.4445 -0.028,0 -0.22913,0.14828 -0.44703,0.32951 -0.62994,0.52392 -0.96618,0.66504 -1.92019,0.80592 -0.0931,0.0138 -0.39096,-0.006 -0.66184,-0.0449 z m 3.07018,-2.44056 c 0.0906,-0.0906 0.21813,-0.34774 0.28348,-0.5715 0.19375,-0.66337 0.69179,-3.31678 0.6335,-3.37507 -0.0764,-0.0764 -0.75325,0.40581 -1.05984,0.755 -0.33826,0.38526 -0.56069,0.99958 -0.74551,2.05905 -0.14118,0.80931 -0.14165,0.87507 -0.008,1.0795 0.17925,0.27357 0.6478,0.30129 0.89607,0.053 z m 9.56411,2.44857 c -1.53283,-0.14337 -2.7048,-0.85271 -2.96117,-1.79227 -0.11363,-0.41644 -0.0546,-1.67812 0.1162,-2.4813 l 0.108,-0.508 1.68385,-0.023 c 0.92612,-0.0127 1.71761,0.0108 1.75887,0.052 0.0436,0.0436 0.0195,0.36762 -0.0574,0.77319 -0.2432,1.282 -0.15111,1.69547 0.37762,1.69547 0.61798,0 0.89366,-0.37536 1.04446,-1.42211 0.0742,-0.51525 0.068,-0.66255 -0.0358,-0.84945 -0.0695,-0.12506 -0.59771,-0.53537 -1.18199,-0.91812 -2.61259,-1.71145 -2.86413,-2.04141 -2.76422,-3.62599 0.0944,-1.49696 0.67959,-2.92563 1.44884,-3.5371 0.93534,-0.74349 1.92476,-1.02668 3.60333,-1.03132 1.03627,-0.003 1.32024,0.0257 1.82149,0.18337 1.06933,0.33633 1.695,0.90422 1.91373,1.737 0.0777,0.29583 0.0636,0.54616 -0.0771,1.36857 -0.099,0.57874 -0.22029,1.03698 -0.28532,1.0782 -0.1444,0.0915 -3.20981,0.0945 -3.35358,0.003 -0.0867,-0.055 -0.0825,-0.18862 0.0212,-0.68157 0.18901,-0.89849 0.17207,-1.16261 -0.0854,-1.33128 -0.16459,-0.10785 -0.27721,-0.1224 -0.4853,-0.0627 -0.36622,0.10503 -0.61733,0.50589 -0.733,1.17014 -0.16558,0.95083 0.083,1.24614 1.93304,2.29641 1.00358,0.56973 1.71305,1.17216 1.97558,1.67751 0.56585,1.08925 -0.20158,4.09294 -1.29748,5.07825 -1.01047,0.9085 -2.6326,1.32442 -4.48839,1.15084 z m 7.23474,-0.25558 c -0.0614,-0.0613 0.39811,-2.52001 1.50352,-8.04567 0.87552,-4.37654 1.61476,-7.99438 1.64274,-8.03966 0.0735,-0.11884 3.82399,-0.10966 3.89766,0.01 0.0312,0.0505 -0.0888,0.82996 -0.2667,1.73207 -0.17792,0.90212 -0.30103,1.66267 -0.27359,1.69011 0.0274,0.0274 0.29289,-0.0837 0.58987,-0.2469 1.42511,-0.78334 2.96866,-0.71881 3.82194,0.15978 0.41881,0.43124 0.51826,0.77708 0.45592,1.58552 -0.0592,0.76788 -2.07249,10.97889 -2.19599,11.13772 -0.0615,0.079 -0.56056,0.10584 -1.97193,0.10584 -1.0393,0 -1.90695,-0.0286 -1.92811,-0.0635 -0.0212,-0.0349 0.41422,-2.33045 0.96752,-5.10117 0.5533,-2.77072 1.00652,-5.21776 1.00715,-5.43788 9.5e-4,-0.33277 -0.0341,-0.42329 -0.20781,-0.53713 -0.30528,-0.20003 -0.63442,-0.0635 -0.87094,0.36128 -0.13949,0.25051 -0.46669,1.71941 -1.21506,5.45478 -0.56329,2.81157 -1.06308,5.15958 -1.11064,5.21778 -0.11167,0.13667 -3.71001,0.15303 -3.84555,0.0175 z"
         id="path1530"
         inkscape:connector-curvature="0" />
      <path
         style="fill:#2acd97;stroke-width:0.08466666"
         d="m 107.26062,139.56903 c -1.12055,-0.22253 -1.92334,-0.75734 -2.30365,-1.53465 -0.18577,-0.3797 -0.24123,-0.62961 -0.2691,-1.21264 -0.0478,-0.99945 0.0584,-1.72393 0.80025,-5.45998 1.05621,-5.31918 1.18299,-5.69261 2.3138,-6.81567 1.0688,-1.06147 2.18873,-1.50601 3.98228,-1.5807 2.07575,-0.0864 3.44072,0.47074 4.10903,1.67733 0.24742,0.4467 0.2511,0.47201 0.23823,1.63904 -0.0109,0.98379 -0.0612,1.41568 -0.29634,2.54 l -0.28326,1.35467 -2.01083,0.0227 c -1.57977,0.0178 -2.01067,-3.4e-4 -2.01008,-0.0847 4.2e-4,-0.0591 0.15281,-0.88244 0.33867,-1.82975 0.18585,-0.9473 0.33791,-1.88437 0.33791,-2.08237 0,-0.4552 -0.18828,-0.64025 -0.65141,-0.64025 -0.49446,0 -0.75003,0.23802 -0.94969,0.88444 -0.25873,0.83768 -1.9549,9.44905 -1.9549,9.92494 0,0.52221 0.16717,0.70529 0.644,0.70529 0.6782,0 0.86532,-0.34893 1.29402,-2.413 0.14507,-0.6985 0.28344,-1.35572 0.30749,-1.4605 l 0.0437,-0.1905 h 1.97394 c 1.08567,0 1.99487,0.0209 2.02046,0.0465 0.0592,0.0592 -0.29775,1.75611 -0.53336,2.53581 -0.44649,1.47763 -0.86372,2.1567 -1.7286,2.81345 -0.69083,0.52458 -1.7284,1.00385 -2.51527,1.16185 -0.78784,0.15819 -2.09696,0.15758 -2.89731,-10e-4 z m 10.76643,-0.039 c -0.70216,-0.17728 -1.23219,-0.56812 -1.41121,-1.0406 -0.24775,-0.65389 0.15384,-3.33825 0.66181,-4.42377 0.38473,-0.82215 0.86237,-1.11861 3.24148,-2.01193 1.7774,-0.66739 2.08319,-0.83866 2.27616,-1.27491 0.19474,-0.44024 0.45027,-1.86289 0.38286,-2.13149 -0.11604,-0.46232 -0.69005,-0.62202 -1.04548,-0.29088 -0.20011,0.18643 -0.28304,0.44772 -0.56774,1.78886 -0.1051,0.49512 -0.21741,0.94279 -0.24958,0.99484 -0.0732,0.11845 -3.48582,0.13347 -3.55863,0.0157 -0.0607,-0.0983 0.22747,-1.40425 0.45518,-2.06249 0.41854,-1.20987 1.0484,-1.9245 2.20754,-2.50468 0.99924,-0.50013 1.70534,-0.63019 3.15828,-0.58172 1.34779,0.045 1.84414,0.16352 2.48312,0.59314 0.22954,0.15433 0.51936,0.45518 0.66241,0.68761 0.50875,0.82661 0.43599,1.54943 -0.76803,7.6301 -0.44258,2.2352 -0.82558,4.15044 -0.85111,4.25609 l -0.0464,0.1921 -1.87426,-0.0228 c -1.18818,-0.0144 -1.86984,-0.0538 -1.8622,-0.10743 0.007,-0.0466 0.0386,-0.24659 0.0709,-0.4445 0.0759,-0.4639 -0.0328,-0.46672 -0.52436,-0.0136 -0.54017,0.49791 -1.16719,0.76075 -1.90898,0.80022 -0.33714,0.0179 -0.75645,-0.004 -0.9318,-0.0479 z m 3.18942,-2.21099 c 0.11636,-0.053 0.26868,-0.21675 0.33848,-0.36384 0.10476,-0.22078 0.81258,-3.43989 0.81258,-3.69559 0,-0.30374 -1.04218,0.38505 -1.39352,0.921 -0.27689,0.42237 -0.54886,1.4326 -0.61094,2.26936 -0.0484,0.65239 -0.0412,0.6923 0.14897,0.8255 0.23501,0.16461 0.41442,0.1757 0.70443,0.0436 z m 9.33754,2.21515 c -1.1925,-0.21716 -2.0611,-0.70636 -2.409,-1.35675 -0.19068,-0.35648 -0.20132,-0.4464 -0.1653,-1.397 0.0212,-0.5588 0.0847,-1.21603 0.14118,-1.4605 l 0.10267,-0.4445 h 1.68632 c 1.93496,0 1.75663,-0.11126 1.5606,0.97366 -0.17269,0.95579 -0.16214,1.11684 0.0896,1.36859 0.17982,0.17981 0.2707,0.20931 0.52014,0.16884 0.56361,-0.0915 0.84574,-0.56594 0.99412,-1.67185 0.0888,-0.66221 0.009,-0.75453 -1.5395,-1.77622 -2.22528,-1.46838 -2.5085,-1.82217 -2.50326,-3.12702 0.005,-1.23166 0.504,-2.79313 1.11515,-3.48919 0.37625,-0.42852 0.95447,-0.77755 1.7458,-1.05379 0.6374,-0.22251 0.76218,-0.23657 2.11667,-0.23857 1.28717,-0.002 1.49916,0.0185 2.00527,0.19343 0.31127,0.10756 0.7358,0.32525 0.9434,0.48376 0.45375,0.34647 0.81904,1.0234 0.81888,1.51748 -9e-5,0.33169 -0.19839,1.6013 -0.30014,1.9219 -0.0463,0.14594 -0.16846,0.15698 -1.73745,0.15698 -1.06814,0 -1.68763,-0.0311 -1.68763,-0.0846 0,-0.0465 0.0597,-0.43039 0.1326,-0.85299 0.12088,-0.7005 0.12071,-0.78649 -0.002,-0.9737 -0.10598,-0.16176 -0.2078,-0.20535 -0.47962,-0.20535 -0.45397,0 -0.78648,0.34086 -0.91441,0.93738 -0.25904,1.20785 -0.0434,1.5198 1.74537,2.52516 1.10033,0.61842 1.76688,1.14314 2.03799,1.60433 0.21222,0.36099 0.23123,0.46532 0.22613,1.2408 -0.007,0.99391 -0.23383,1.96554 -0.676,2.88986 -0.47773,0.99864 -1.34968,1.66974 -2.62043,2.01681 -0.59167,0.16159 -2.35371,0.24116 -2.94719,0.13308 z m 7.56565,-0.27725 c 0.002,-0.0582 0.7185,-3.66819 1.59161,-8.02217 l 1.58746,-7.91633 1.85656,-0.0229 c 1.02111,-0.0126 1.90037,-0.006 1.9539,0.0145 0.0688,0.0264 10e-4,0.51609 -0.23083,1.66855 -0.18049,0.89715 -0.32816,1.66216 -0.32816,1.70001 0,0.12779 0.1833,0.0701 0.88995,-0.28005 0.62601,-0.3102 0.78911,-0.35373 1.47119,-0.39262 1.22581,-0.0699 2.00503,0.26014 2.38838,1.01156 0.31673,0.62084 0.21777,1.37389 -0.94085,7.15944 l -1.03853,5.18583 h -1.93541 c -1.51184,0 -1.9354,-0.0236 -1.9354,-0.10792 0,-0.0594 0.43389,-2.27868 0.96419,-4.93183 0.53031,-2.65315 0.99123,-5.02496 1.02426,-5.27068 0.0796,-0.59237 -0.0822,-0.86557 -0.51278,-0.86557 -0.39274,0 -0.64248,0.27308 -0.82952,0.90705 -0.10532,0.35699 -2.08548,10.08525 -2.08548,10.2457 0,0.0128 -0.8763,0.0233 -1.94734,0.0233 -1.50362,0 -1.94639,-0.0241 -1.9432,-0.10583 z"
         id="path1528"
         inkscape:connector-curvature="0" />
      <path
         style="fill:#00c489;stroke-width:0.08466666"
         d="m 107.23905,139.49462 c -1.07837,-0.24494 -1.80136,-0.71125 -2.1836,-1.40839 -0.22529,-0.41087 -0.25516,-0.55362 -0.28414,-1.35787 -0.0399,-1.10645 0.0599,-1.77001 0.88371,-5.8746 0.93159,-4.64186 1.1194,-5.18597 2.14984,-6.22853 0.63427,-0.64173 1.20326,-0.98785 2.159,-1.31337 0.56609,-0.1928 0.86576,-0.23724 1.82456,-0.27054 0.976,-0.0339 1.2526,-0.0132 1.85341,0.13873 1.09441,0.27676 1.80929,0.77714 2.22696,1.55879 0.17198,0.32185 0.19067,0.47181 0.187,1.50059 -0.004,1.08937 -0.0763,1.62255 -0.47463,3.4925 l -0.0857,0.40216 h -1.94032 c -1.55855,0 -1.94032,-0.0222 -1.94032,-0.11266 0,-0.062 0.13397,-0.77633 0.29771,-1.58747 0.16374,-0.81115 0.32115,-1.72699 0.34979,-2.03521 0.0463,-0.49844 0.0321,-0.58036 -0.12837,-0.74086 -0.12977,-0.12977 -0.28565,-0.18046 -0.55496,-0.18046 -0.5463,0 -0.84901,0.2849 -1.06485,1.00219 -0.24276,0.80675 -1.85471,8.91071 -1.91886,9.64692 -0.0494,0.56716 -0.0381,0.63275 0.14302,0.8255 0.2912,0.30997 0.8563,0.2953 1.18229,-0.0307 0.28828,-0.28829 0.42922,-0.73445 0.78669,-2.49043 l 0.27147,-1.3335 h 1.97065 1.97065 l -0.0408,0.1905 c -0.37819,1.76612 -0.76858,3.1124 -1.08533,3.74272 -0.43737,0.87036 -1.74223,1.87514 -2.98344,2.29734 -0.58445,0.19881 -0.83987,0.23418 -1.86267,0.25796 -0.80525,0.0187 -1.35318,-0.0106 -1.70881,-0.0913 z m 10.56902,-0.11946 c -1.26334,-0.45042 -1.45107,-1.16105 -0.94661,-3.58334 0.492,-2.36243 0.64148,-2.50939 3.7704,-3.70696 2.05982,-0.78838 2.15019,-0.85389 2.37716,-1.72305 0.40534,-1.55222 0.27077,-2.25972 -0.42982,-2.25972 -0.56245,0 -0.71714,0.27961 -1.05395,1.905 l -0.22807,1.10067 -1.75498,0.0229 -1.75499,0.0229 0.0573,-0.31924 c 0.41981,-2.33928 1.06695,-3.38527 2.5757,-4.16321 0.90313,-0.46567 1.61645,-0.62235 2.83633,-0.623 1.56931,-8.5e-4 2.46411,0.24807 3.07005,0.85401 0.62758,0.62758 0.74157,1.35459 0.48362,3.08436 -0.11574,0.77608 -1.67866,8.77773 -1.78595,9.14345 -0.0396,0.13514 -0.20278,0.14816 -1.85598,0.14816 h -1.81251 l 0.0574,-0.27516 c 0.0849,-0.40684 0.0766,-0.67806 -0.0216,-0.71217 -0.0478,-0.0166 -0.27499,0.1474 -0.50478,0.36446 -0.8386,0.79217 -2.06907,1.07991 -3.07871,0.71994 z m 3.58825,-2.08216 c 0.22504,-0.14535 0.38575,-0.6897 0.76095,-2.57743 0.33309,-1.67584 0.32222,-1.80884 -0.1287,-1.57566 -0.42115,0.21779 -1.08139,0.88814 -1.27063,1.29009 -0.22314,0.47395 -0.50438,1.76136 -0.50596,2.31614 -0.002,0.66703 0.54997,0.93077 1.14434,0.54686 z m 9.05688,2.1539 c -0.62513,-0.11324 -1.13693,-0.31052 -1.57251,-0.60616 -0.8277,-0.56177 -1.02581,-1.25309 -0.80013,-2.79203 0.0773,-0.527 0.18137,-1.0074 0.23129,-1.06756 0.11352,-0.13677 3.25067,-0.1161 3.22811,0.0213 -0.27097,1.64986 -0.29345,1.87696 -0.20758,2.09702 0.17476,0.44786 0.90408,0.49929 1.31093,0.0924 0.27304,-0.27304 0.49564,-1.12419 0.46153,-1.76469 l -0.027,-0.50656 -0.52292,-0.38244 c -0.28761,-0.21034 -0.91626,-0.6368 -1.397,-0.94768 -1.1132,-0.71988 -1.53723,-1.08648 -1.82717,-1.5797 -0.21426,-0.36448 -0.23138,-0.4606 -0.22112,-1.24173 0.0158,-1.2012 0.42293,-2.52836 1.01988,-3.3245 0.7236,-0.96505 2.78135,-1.56689 4.68421,-1.37003 1.36698,0.14143 2.20239,0.5553 2.63171,1.30379 0.29234,0.50967 0.31234,0.89708 0.10599,2.05237 l -0.14076,0.78804 h -1.64685 -1.64685 l 0.051,-0.27517 c 0.028,-0.15134 0.0754,-0.5628 0.10521,-0.91435 0.0651,-0.76671 -0.0344,-0.92715 -0.57482,-0.92715 -0.47565,0 -0.85868,0.38699 -0.99024,1.00046 -0.27282,1.27208 -0.0691,1.56012 1.88484,2.66471 1.11954,0.6329 1.84492,1.27086 2.04718,1.80046 0.27667,0.72446 0.0101,2.53628 -0.54907,3.73115 -0.45251,0.96704 -1.14172,1.53992 -2.33586,1.94158 -0.56806,0.19108 -0.85491,0.23229 -1.778,0.25549 -0.60537,0.0152 -1.29117,-0.007 -1.524,-0.049 z m 7.74698,-0.23231 c -10e-6,-0.0349 0.71052,-3.61632 1.57895,-7.95866 l 1.57896,-7.89517 h 1.87983 1.87982 l -0.33919,1.69718 c -0.22562,1.12889 -0.31091,1.72547 -0.25472,1.78166 0.0562,0.0562 0.29446,-0.0279 0.71159,-0.25111 0.78178,-0.41835 1.2268,-0.53794 1.98178,-0.53256 0.69545,0.005 1.05684,0.10076 1.47607,0.39129 0.60399,0.41857 0.78732,0.9681 0.67165,2.01328 -0.0638,0.57633 -1.93028,10.18117 -2.07338,10.66943 -0.0396,0.13528 -0.20484,0.14816 -1.90038,0.14816 -1.02133,0 -1.85696,-0.0276 -1.85696,-0.0613 0,-0.0337 0.44056,-2.26777 0.97903,-4.96455 0.53847,-2.69678 0.98615,-5.10346 0.99484,-5.34818 0.0197,-0.55437 -0.16506,-0.80196 -0.59836,-0.80196 -0.43656,0 -0.72439,0.35706 -0.93735,1.1628 -0.0956,0.36165 -0.57841,2.69589 -1.07295,5.1872 -0.49454,2.49132 -0.91854,4.59635 -0.94223,4.67784 -0.0393,0.1353 -0.20434,0.14816 -1.90002,0.14816 -1.02133,0 -1.85697,-0.0286 -1.85698,-0.0635 z"
         id="path1526"
         inkscape:connector-curvature="0" />
    </g>
  </g>
</svg>
